<?xml version="1.0" encoding="UTF-8"?>
<svg width="1200pt" height="1200pt" version="1.1" viewBox="0 0 1200 1200" xmlns="http://www.w3.org/2000/svg">
 <path d="m965.29 881.39h-105.98c-7.875 0.70312-13.875 7.3125-13.875 15.188s6 14.484 13.875 15.188h105.98c4.2656 0.375 8.4844-1.0781 11.625-3.9375 3.1406-2.9062 4.9688-6.9844 4.9688-11.25s-1.8281-8.3438-4.9688-11.25c-3.1406-2.8594-7.3594-4.3125-11.625-3.9375z"/>
 <path d="m778.45 881.39h-105.84c-4.2656-0.375-8.4844 1.0781-11.625 3.9375-3.1875 2.9062-4.9688 6.9844-4.9688 11.25s1.7812 8.3438 4.9688 11.25c3.1406 2.8594 7.3594 4.3125 11.625 3.9375h105.84c4.2656 0.375 8.4844-1.0781 11.625-3.9375 3.1406-2.9062 4.9688-6.9844 4.9688-11.25s-1.8281-8.3438-4.9688-11.25c-3.1406-2.8594-7.3594-4.3125-11.625-3.9375z"/>
 <path d="m564 852.94c-17.672 0-33.609 10.688-40.359 27s-3 35.109 9.4688 47.578c12.516 12.516 31.266 16.219 47.625 9.4688 16.312-6.75 26.953-22.688 26.953-40.359 0-11.578-4.5938-22.688-12.797-30.891-8.2031-8.1562-19.312-12.797-30.891-12.797z"/>
 <path d="m421.22 852.94c-17.672 0-33.609 10.688-40.359 27-6.7969 16.312-3.0469 35.109 9.4688 47.578 12.469 12.516 31.266 16.219 47.578 9.4688s26.953-22.688 26.953-40.359c0-11.578-4.5938-22.688-12.75-30.891-8.2031-8.1562-19.312-12.797-30.891-12.797z"/>
 <path d="m278.39 852.94c-17.672-0.046875-33.609 10.594-40.453 26.906-6.7969 16.312-3.0469 35.109 9.4219 47.625s31.266 16.312 47.625 9.5156c16.312-6.75 26.953-22.688 26.953-40.359 0-24.047-19.453-43.594-43.547-43.688z"/>
 <path d="m919.69 298.45h-639.37c-34.453 0-62.391 27.938-62.391 62.391v404.53c-0.046876 16.594 6.4688 32.531 18.188 44.25 11.719 11.766 27.609 18.375 44.203 18.375h639.37c34.406 0 62.344-27.844 62.391-62.297v-404.86c0-16.547-6.5625-32.438-18.281-44.109-11.719-11.719-27.562-18.281-44.109-18.281zm32.062 466.92h-0.046875c-0.046875 17.625-14.391 31.922-32.016 31.922h-639.37c-17.625 0-31.969-14.297-32.016-31.922v-184.6h46.781c5.4844 0.046875 10.5-2.9062 13.219-7.6406l14.062-25.078 15.375 61.219-0.046876-0.046875c1.4062 6.7969 7.3125 11.766 14.25 12 6.8438 0.375 13.031-3.9844 14.906-10.547l42.844-134.63 32.156 211.22v-0.046875c1.125 7.3594 7.3594 12.797 14.766 12.984 7.1719-0.1875 13.359-5.0625 15.234-12l24.844-127.22 8.7656 45.234c1.5 6.75 7.3594 11.672 14.25 12 7.0312 0.32813 13.359-4.2656 15.234-11.016l8.2969-28.312 1.0781 6.2344c1.2656 7.125 7.4062 12.422 14.625 12.562l43.453 0.84375 22.453 41.391c2.8594 5.4375 8.7188 8.5781 14.859 7.9688 6.0938-0.60938 11.203-4.8281 12.984-10.688l21.938-70.781 25.312 153.56c1.5938 7.0312 7.8281 12 15 12 7.2656 0.09375 13.547-4.9219 15-12l29.859-182.53 19.078 120h0.046876c1.0781 7.0781 6.8906 12.422 14.016 12.844 7.125 0.46875 13.594-4.1719 15.516-11.016l18.375-63.844 12 36h-0.046876c2.1094 6.1406 7.9219 10.312 14.438 10.312 6.5156-0.046874 12.281-4.3125 14.25-10.547l17.156-52.453h66.844zm0-217.45h-77.906c-6.6094-0.046875-12.469 4.1719-14.531 10.453l-6.2344 19.453-13.078-38.531c-1.875-6.4688-8.0156-10.781-14.766-10.359-6.6562 0.14062-12.422 4.6406-14.156 11.062l-12.938 44.766-23.062-145.45c-1.2188-7.3594-7.5469-12.75-15-12.844-7.4531 0.046875-13.781 5.3906-15 12.75l-30.141 184.78-20.719-126.37c-1.2188-6.8906-6.9844-12.094-13.969-12.562s-13.406 3.8438-15.562 10.547l-30.375 97.688-9.375-17.297c-2.5312-4.8281-7.4531-7.9688-12.938-8.1562l-39.703-0.70312-10.219-58.312v-0.046875c-1.4531-6.7031-7.1719-11.578-14.016-12-7.125-0.51562-13.641 4.0781-15.516 10.922l-9 30.938-12-60v0.046875c-1.5469-7.0312-7.7812-12-15-12-7.1719-0.046875-13.406 4.9688-14.859 12l-23.156 118.22-28.688-190.22c-0.98438-6.9844-6.7031-12.375-13.734-12.938-7.0312-0.60938-13.547 3.7969-15.656 10.547l-46.312 145.64-12-46.453v0.046875c-1.5469-6.0469-6.6094-10.594-12.797-11.391-6.1875-0.84375-12.234 2.2031-15.281 7.6406l-28.453 50.625-37.312 0.046875v-189.61c0.046875-17.672 14.344-31.969 32.016-32.062h639.37c17.672 0.09375 31.969 14.391 32.016 32.062z"/>
 <path d="m964.69 204h-729.37c-63.422 0.14062-114.94 51.375-115.31 114.84v562.31c0.046876 63.703 51.656 115.31 115.31 115.45h729.37c63.656-0.14062 115.27-51.75 115.31-115.45v-562.31c-0.375-63.469-51.891-114.7-115.31-114.84zm84.938 677.76c-0.046875 46.875-38.062 84.891-84.938 84.938h-729.37c-46.875-0.046875-84.891-38.062-84.938-84.938v-562.92c0.046876-46.922 38.062-84.891 84.938-84.984h729.37c46.875 0.09375 84.891 38.062 84.938 84.984z"/>
</svg>
