<?xml version="1.0" encoding="UTF-8"?>
<svg width="1200pt" height="1200pt" version="1.1" viewBox="0 0 1200 1200" xmlns="http://www.w3.org/2000/svg">
 <path d="m964.55 204h-729.24c-63.422 0.14062-114.94 51.375-115.31 114.84v562.31c0.375 63.469 51.891 114.7 115.31 114.84h729.24c63.516-0.046875 115.08-51.328 115.45-114.84v-562.31c-0.375-63.516-51.938-114.8-115.45-114.84zm-686.16 736.22c-17.672 0-33.609-10.688-40.359-27-6.75-16.359-3-35.156 9.5156-47.625s31.312-16.172 47.672-9.375c16.312 6.7969 26.906 22.734 26.859 40.406-0.046875 24.094-19.594 43.594-43.688 43.594zm142.92 0c-17.672 0.046875-33.656-10.594-40.453-26.906-6.7969-16.359-3.0469-35.156 9.4688-47.672s31.312-16.266 47.625-9.4688c16.359 6.7969 26.953 22.781 26.906 40.453-0.046875 24.047-19.5 43.5-43.547 43.594zm142.78 0h0.046874c-17.719 0.046875-33.703-10.594-40.453-26.906-6.7969-16.359-3.0938-35.156 9.4219-47.672 12.516-12.516 31.312-16.266 47.672-9.4688 16.312 6.7969 26.953 22.781 26.906 40.453-0.09375 24.094-19.594 43.594-43.688 43.594zm214.36-28.219h-105.84c-4.2656 0.375-8.4844-1.0312-11.625-3.9375-3.1875-2.9062-4.9688-6.9844-4.9688-11.25s1.7812-8.3438 4.9688-11.25c3.1406-2.8594 7.3594-4.3125 11.625-3.9375h105.84c4.2656-0.375 8.4844 1.0781 11.625 3.9375 3.1406 2.9062 4.9688 6.9844 4.9688 11.25s-1.8281 8.3438-4.9688 11.25-7.3594 4.3125-11.625 3.9375zm186.84 0h-105.84c-4.2656 0.375-8.4844-1.0312-11.672-3.9375-3.1406-2.9062-4.9219-6.9844-4.9219-11.25s1.7812-8.3438 4.9219-11.25c3.1875-2.8594 7.4062-4.3125 11.672-3.9375h105.84c4.2656-0.375 8.4844 1.0781 11.625 3.9375 3.1406 2.9062 4.9688 6.9844 4.9688 11.25s-1.8281 8.3438-4.9688 11.25-7.3594 4.3125-11.625 3.9375zm16.688-146.39h-0.046875c0 34.406-27.844 62.344-62.25 62.391h-639.37c-34.359-0.046874-62.203-27.891-62.25-62.297v-404.76c0-34.406 27.844-62.297 62.25-62.391h639.37c34.406 0.09375 62.25 27.984 62.25 62.391z"/>
 <path d="m867.71 630.71c-1.9688 6.2812-7.8281 10.547-14.391 10.547s-12.375-4.2656-14.391-10.547l-12-36-18.234 63.938v0.046875c-2.0156 6.7969-8.4844 11.297-15.562 10.875s-12.891-5.6719-14.062-12.703l-19.078-120-30.047 183.14c-1.4531 7.0312-7.6875 12.047-14.859 12-7.2188 0.14063-13.547-4.9219-15-12l-25.453-153.61-21.938 70.688c-1.875 5.8125-6.9844 9.9375-13.031 10.547-6.0469 0.5625-11.859-2.4844-14.812-7.7812l-22.453-41.766-43.312-0.84375c-7.3125-0.09375-13.5-5.3906-14.766-12.609l-1.0781-6.2344-8.2969 28.312c-1.7812 6.8906-8.1562 11.578-15.281 11.25-7.0781-0.32812-13.031-5.5312-14.203-12.562l-8.625-45.234-24.984 127.31c-1.7812 7.0312-8.1094 11.953-15.375 12-7.3125-0.09375-13.453-5.4844-14.531-12.703l-32.25-211.31-42.844 134.76c-1.875 6.5625-8.0625 10.969-14.906 10.547-6.75-0.1875-12.609-4.8281-14.25-11.391l-15.375-61.453-14.062 25.078h0.046875c-2.6719 4.875-7.7812 7.875-13.359 7.7812h-46.547v184.6c0 17.625 14.297 31.922 31.922 31.922h639.37c17.625 0 31.922-14.297 31.922-31.922v-186.98h-66.844z"/>
 <path d="m919.69 328.92h-639.37c-8.4844 0-16.594 3.375-22.594 9.375-6 6.0469-9.3281 14.156-9.3281 22.641v189.52h37.781l28.453-50.625v-0.046875c2.9062-5.4844 8.9531-8.625 15.141-7.7812 6.2344 0.75 11.344 5.2969 12.844 11.391l12 46.312 45.844-145.31c1.9688-6.8906 8.5312-11.391 15.656-10.875 7.1719 0.5625 12.938 6.0469 13.828 13.172l28.781 189.24 23.156-118.22h0.046876c1.5-7.0312 7.6875-12.047 14.859-12 7.2188-0.046876 13.406 4.9688 14.906 12l12 60 9.1406-30.938h-0.046876c1.9219-6.8906 8.3438-11.484 15.469-11.109 7.125 0.42188 12.984 5.7188 14.062 12.797l10.219 58.312 39.609 0.70312c5.4375 0.14063 10.406 3.1875 13.078 7.9219l9.6094 17.531 30.234-97.688c2.1094-6.6562 8.4844-11.062 15.469-10.688 7.0312 0.46875 12.797 5.7656 13.922 12.75l20.484 126.71 30-184.45c1.3594-7.2656 7.7344-12.609 15.141-12.609 7.3594 0.23438 13.594 5.5312 15 12.75l23.156 145.45 12.703-45.141c1.8281-6.4219 7.6406-10.828 14.297-10.922 6.75-0.46875 12.891 3.8438 14.766 10.312l13.078 38.531 6.1406-19.312c2.0625-6.2812 7.875-10.547 14.484-10.547h77.906v-187.13c0-8.4844-3.3281-16.594-9.3281-22.641-6-6-14.109-9.375-22.594-9.375z"/>
</svg>
