<?xml version="1.0" encoding="UTF-8"?>
<svg width="1200pt" height="1200pt" version="1.1" viewBox="0 0 1200 1200" xmlns="http://www.w3.org/2000/svg">
 <path d="m139.92 809.86v139.55c0 41.25 33.422 74.672 74.672 74.672h770.86c41.25 0 74.672-33.422 74.672-74.672v-139.55zm138.94 137.86c-17.016 0-30.797-13.781-30.797-30.797 0-17.016 13.781-30.797 30.797-30.797s30.75 13.781 30.75 30.797c0 17.016-13.781 30.797-30.75 30.797zm103.88 0c-17.016 0-30.797-13.781-30.797-30.797 0-17.016 13.781-30.797 30.797-30.797s30.797 13.781 30.797 30.797c0 17.016-13.781 30.797-30.797 30.797zm103.88 0c-17.016 0-30.797-13.781-30.797-30.797 0-17.016 13.781-30.797 30.797-30.797s30.75 13.781 30.75 30.797c0 17.016-13.781 30.797-30.75 30.797z"/>
 <path d="m985.45 177.94h-770.9c-41.156 0-74.625 33.469-74.625 74.625v516.14h920.16v-516.1c0-41.156-33.469-74.625-74.625-74.625zm-5.3906 376.6h-280.92l-0.23438-0.60938-51.375-123.47-63 194.63c-3.2344 9.8438-12 16.547-22.312 17.156h-1.3125c-9.9375 0-18.703-5.7656-22.688-14.859l-47.391-107.53-18.469 34.688h-0.60938l-85.688 0.23438-172.69-0.23438c-5.5312 0-10.688-2.1562-14.531-6.1406-3.9375-3.8438-6-9-6-14.531 0-11.297 9.1406-20.531 20.531-20.531l172.69 0.23437 61.688-0.14062 22.547-42.469c4.3125-8.1562 12.703-13.219 22.078-13.219h0.70312c9.6094 0.46875 18 6.1406 21.844 14.859l43.688 99.141 63.375-195.84c3.2344-9.9375 12.141-16.688 22.547-17.156h1.0781c10.078 0 18.938 5.8594 22.922 15.234l57.938 139.45h253.55c11.391 0 20.531 9.2344 20.531 20.531s-9.1406 20.531-20.531 20.531z"/>
</svg>
