<svg xmlns="http://www.w3.org/2000/svg" data-name="Layer 1" viewBox="0 0 16 20" x="0px" y="0px"><path d="m12.89,2.78H3.11c-.43,0-.78.35-.78.78v8.87c0,.43.35.78.78.78h9.78c.43,0,.78-.35.78-.78V3.57c0-.43-.35-.78-.78-.78Zm.47,9.65c0,.26-.21.47-.47.47H3.11c-.26,0-.47-.21-.47-.47v-1.78h10.72v1.78Zm-10.72-2.1V3.57c0-.26.21-.47.47-.47h9.78c.26,0,.47.21.47.47v6.77H2.64Z"/><path d="m7.53,8.42c-.08,0-.16-.05-.19-.12l-.64-1.46-.28.53h-.98s-2.07,0-2.07,0c-.09,0-.16-.07-.16-.16,0-.09.07-.16.16-.16h2.07s.79,0,.79,0l.3-.56c.04-.07.11-.11.19-.11.08,0,.15.05.18.12l.62,1.41.83-2.57c.03-.08.1-.14.19-.14.09,0,.17.05.2.13l.72,1.73h3.1c.09,0,.16.07.16.16s-.07.16-.16.16h-3.31l-.69-1.66-.83,2.57c-.03.08-.1.14-.19.14,0,0,0,0-.01,0Z"/><g><path d="m4.15,12.3c-.29,0-.53-.24-.53-.53s.24-.53.53-.53.53.24.53.53-.24.53-.53.53Zm0-.74c-.12,0-.21.1-.21.21s.1.21.21.21.21-.1.21-.21-.1-.21-.21-.21Z"/><path d="m5.39,12.3c-.29,0-.53-.24-.53-.53s.24-.53.53-.53.53.24.53.53-.24.53-.53.53Zm0-.74c-.12,0-.21.1-.21.21s.1.21.21.21.21-.1.21-.21-.1-.21-.21-.21Z"/><path d="m6.64,12.3c-.29,0-.53-.24-.53-.53s.24-.53.53-.53.53.24.53.53-.24.53-.53.53Zm0-.74c-.12,0-.21.1-.21.21s.1.21.21.21.21-.1.21-.21-.1-.21-.21-.21Z"/></g><text x="0" y="31" fill="#000000" font-size="5px" font-weight="bold" font-family="'Helvetica Neue', Helvetica, Arial-Unicode, Arial, Sans-serif">Created by Mahardika</text><text x="0" y="36" fill="#000000" font-size="5px" font-weight="bold" font-family="'Helvetica Neue', Helvetica, Arial-Unicode, Arial, Sans-serif">from the Noun Project</text></svg>