<svg xmlns="http://www.w3.org/2000/svg" version="1.1" xmlns:xlink="http://www.w3.org/1999/xlink" width="1200pt" height="1200pt"><svg width="1200pt" height="1200pt" version="1.1" viewBox="0 0 1200 1200" xmlns="http://www.w3.org/2000/svg">
 <path d="m966.75 208.5h-733.5c-32.25 0-58.5 26.25-58.5 58.5v665.25c0 32.25 26.25 58.5 58.5 58.5h733.5c32.25 0 58.5-26.25 58.5-58.5v-664.5c0-32.25-26.25-58.5-58.5-58.5zm35.25 723.75c0 19.5-15.75 35.25-35.25 35.25h-733.5c-19.5 0-35.25-15.75-35.25-35.25v-133.5h804zm-804-157.5v-507c0-19.5 15.75-35.25 35.25-35.25h733.5c19.5 0 35.25 15.75 35.25 35.25v507.75h-804z"></path>
 <path d="m564.75 631.5c-6 0-12-3.75-14.25-9l-48-109.5-21 39.75h-73.5-155.25c-6.75 0-12-5.25-12-12s5.25-12 12-12h155.25 59.25l22.5-42c3-5.25 8.25-8.25 14.25-8.25s11.25 3.75 13.5 9l46.5 105.75 62.25-192.75c2.25-6 7.5-10.5 14.25-10.5s12.75 3.75 15 9.75l54 129.75h232.5c6.75 0 12 5.25 12 12s-5.25 12-12 12h-248.25l-51.75-124.5-62.25 192.75c-2.25 6-7.5 10.5-14.25 10.5h-0.75z"></path>
 <path d="m311.25 922.5c-21.75 0-39.75-18-39.75-39.75s18-39.75 39.75-39.75 39.75 18 39.75 39.75-18 39.75-39.75 39.75zm0-55.5c-9 0-15.75 7.5-15.75 15.75s7.5 15.75 15.75 15.75 15.75-7.5 15.75-15.75-7.5-15.75-15.75-15.75z"></path>
 <path d="m404.25 922.5c-21.75 0-39.75-18-39.75-39.75s18-39.75 39.75-39.75 39.75 18 39.75 39.75-18 39.75-39.75 39.75zm0-55.5c-9 0-15.75 7.5-15.75 15.75s7.5 15.75 15.75 15.75 15.75-7.5 15.75-15.75-7.5-15.75-15.75-15.75z"></path>
 <path d="m498 922.5c-21.75 0-39.75-18-39.75-39.75s18-39.75 39.75-39.75 39.75 18 39.75 39.75-18 39.75-39.75 39.75zm0-55.5c-9 0-15.75 7.5-15.75 15.75s7.5 15.75 15.75 15.75 15.75-7.5 15.75-15.75-7.5-15.75-15.75-15.75z"></path>
</svg><style>@media (prefers-color-scheme: light) { :root { filter: none; } }
@media (prefers-color-scheme: dark) { :root { filter: invert(100%); } }
</style></svg>